<mxfile host="65bd71144e">
    <diagram id="ahQuxIIEsiJeUFvXvEbM" name="DW">
        <mxGraphModel dx="1339" dy="1461" grid="0" gridSize="10" guides="1" tooltips="1" connect="1" arrows="1" fold="1" page="1" pageScale="1" pageWidth="827" pageHeight="1169" math="0" shadow="0">
            <root>
                <mxCell id="0"/>
                <mxCell id="1" parent="0"/>
                <mxCell id="j6BQ6q7e4mZp7AfNVcr9-1" value="Data Warehouse" style="swimlane;horizontal=0;whiteSpace=wrap;html=1;" parent="1" vertex="1">
                    <mxGeometry x="844" y="13" width="1507" height="1377" as="geometry"/>
                </mxCell>
                <mxCell id="17xcBczWS7s4shoctvgW-24" style="edgeStyle=orthogonalEdgeStyle;html=1;fillColor=#f8cecc;strokeColor=#b85450;strokeWidth=2;" edge="1" parent="j6BQ6q7e4mZp7AfNVcr9-1" source="j6BQ6q7e4mZp7AfNVcr9-4" target="j6BQ6q7e4mZp7AfNVcr9-56">
                    <mxGeometry relative="1" as="geometry">
                        <Array as="points">
                            <mxPoint x="831" y="329"/>
                            <mxPoint x="831" y="422"/>
                        </Array>
                    </mxGeometry>
                </mxCell>
                <mxCell id="17xcBczWS7s4shoctvgW-27" style="edgeStyle=orthogonalEdgeStyle;html=1;fillColor=#d5e8d4;strokeColor=#82b366;strokeWidth=2;" edge="1" parent="j6BQ6q7e4mZp7AfNVcr9-1" source="j6BQ6q7e4mZp7AfNVcr9-4" target="j6BQ6q7e4mZp7AfNVcr9-52">
                    <mxGeometry relative="1" as="geometry">
                        <Array as="points">
                            <mxPoint x="936" y="342"/>
                            <mxPoint x="936" y="741"/>
                        </Array>
                    </mxGeometry>
                </mxCell>
                <mxCell id="17xcBczWS7s4shoctvgW-31" style="edgeStyle=orthogonalEdgeStyle;html=1;fillColor=#dae8fc;strokeColor=#6c8ebf;strokeWidth=2;" edge="1" parent="j6BQ6q7e4mZp7AfNVcr9-1" source="j6BQ6q7e4mZp7AfNVcr9-4" target="j6BQ6q7e4mZp7AfNVcr9-54">
                    <mxGeometry relative="1" as="geometry">
                        <Array as="points">
                            <mxPoint x="1029" y="353"/>
                            <mxPoint x="1029" y="884"/>
                        </Array>
                    </mxGeometry>
                </mxCell>
                <mxCell id="17xcBczWS7s4shoctvgW-36" style="edgeStyle=orthogonalEdgeStyle;sketch=0;html=1;strokeWidth=2;" edge="1" parent="j6BQ6q7e4mZp7AfNVcr9-1" source="j6BQ6q7e4mZp7AfNVcr9-4" target="j6BQ6q7e4mZp7AfNVcr9-50">
                    <mxGeometry relative="1" as="geometry">
                        <Array as="points">
                            <mxPoint x="1129" y="367"/>
                            <mxPoint x="1129" y="545"/>
                        </Array>
                    </mxGeometry>
                </mxCell>
                <mxCell id="j6BQ6q7e4mZp7AfNVcr9-4" value="#SCD-T2#&lt;br&gt;- Load to Customer Dimension" style="points=[[0.25,0,0],[0.5,0,0],[0.75,0,0],[1,0.25,0],[1,0.5,0],[1,0.75,0],[0.75,1,0],[0.5,1,0],[0.25,1,0],[0,0.75,0],[0,0.5,0],[0,0.25,0]];shape=mxgraph.bpmn.task;whiteSpace=wrap;rectStyle=rounded;size=10;html=1;taskMarker=abstract;isLoopSub=1;" parent="j6BQ6q7e4mZp7AfNVcr9-1" vertex="1">
                    <mxGeometry x="659" y="318" width="110" height="70" as="geometry"/>
                </mxCell>
                <mxCell id="j6BQ6q7e4mZp7AfNVcr9-6" value="dsa.customers" style="shape=datastore;whiteSpace=wrap;html=1;labelPosition=center;verticalLabelPosition=top;align=center;verticalAlign=bottom;" parent="j6BQ6q7e4mZp7AfNVcr9-1" vertex="1">
                    <mxGeometry x="300" y="205" width="60" height="60" as="geometry"/>
                </mxCell>
                <mxCell id="j6BQ6q7e4mZp7AfNVcr9-7" value="dw.dim_customer" style="shape=datastore;whiteSpace=wrap;html=1;labelPosition=center;verticalLabelPosition=top;align=center;verticalAlign=bottom;" parent="j6BQ6q7e4mZp7AfNVcr9-1" vertex="1">
                    <mxGeometry x="495" y="184" width="60" height="60" as="geometry"/>
                </mxCell>
                <mxCell id="j6BQ6q7e4mZp7AfNVcr9-9" value="dsa.contacts" style="shape=datastore;whiteSpace=wrap;html=1;labelPosition=center;verticalLabelPosition=top;align=center;verticalAlign=bottom;" parent="j6BQ6q7e4mZp7AfNVcr9-1" vertex="1">
                    <mxGeometry x="376" y="174" width="60" height="60" as="geometry"/>
                </mxCell>
                <mxCell id="17xcBczWS7s4shoctvgW-23" style="edgeStyle=orthogonalEdgeStyle;html=1;fillColor=#f8cecc;strokeColor=#b85450;strokeWidth=2;" edge="1" parent="j6BQ6q7e4mZp7AfNVcr9-1" source="j6BQ6q7e4mZp7AfNVcr9-11" target="j6BQ6q7e4mZp7AfNVcr9-56">
                    <mxGeometry relative="1" as="geometry">
                        <Array as="points">
                            <mxPoint x="830" y="642"/>
                            <mxPoint x="830" y="422"/>
                        </Array>
                    </mxGeometry>
                </mxCell>
                <mxCell id="17xcBczWS7s4shoctvgW-30" style="edgeStyle=orthogonalEdgeStyle;html=1;fillColor=#dae8fc;strokeColor=#6c8ebf;strokeWidth=2;" edge="1" parent="j6BQ6q7e4mZp7AfNVcr9-1" source="j6BQ6q7e4mZp7AfNVcr9-11" target="j6BQ6q7e4mZp7AfNVcr9-54">
                    <mxGeometry relative="1" as="geometry">
                        <Array as="points">
                            <mxPoint x="1030" y="656"/>
                            <mxPoint x="1030" y="884"/>
                        </Array>
                    </mxGeometry>
                </mxCell>
                <mxCell id="17xcBczWS7s4shoctvgW-35" style="edgeStyle=orthogonalEdgeStyle;sketch=0;html=1;strokeWidth=2;" edge="1" parent="j6BQ6q7e4mZp7AfNVcr9-1" source="j6BQ6q7e4mZp7AfNVcr9-11" target="j6BQ6q7e4mZp7AfNVcr9-50">
                    <mxGeometry relative="1" as="geometry">
                        <Array as="points">
                            <mxPoint x="1129" y="672"/>
                            <mxPoint x="1129" y="545"/>
                        </Array>
                    </mxGeometry>
                </mxCell>
                <mxCell id="j6BQ6q7e4mZp7AfNVcr9-11" value="#SCD#&lt;br&gt;- Load to Product Dimension" style="points=[[0.25,0,0],[0.5,0,0],[0.75,0,0],[1,0.25,0],[1,0.5,0],[1,0.75,0],[0.75,1,0],[0.5,1,0],[0.25,1,0],[0,0.75,0],[0,0.5,0],[0,0.25,0]];shape=mxgraph.bpmn.task;whiteSpace=wrap;rectStyle=rounded;size=10;html=1;taskMarker=abstract;isLoopSub=1;" parent="j6BQ6q7e4mZp7AfNVcr9-1" vertex="1">
                    <mxGeometry x="659" y="626" width="110" height="70" as="geometry"/>
                </mxCell>
                <mxCell id="j6BQ6q7e4mZp7AfNVcr9-12" value="dsa.products" style="shape=datastore;whiteSpace=wrap;html=1;labelPosition=center;verticalLabelPosition=top;align=center;verticalAlign=bottom;" parent="j6BQ6q7e4mZp7AfNVcr9-1" vertex="1">
                    <mxGeometry x="275" y="518" width="60" height="60" as="geometry"/>
                </mxCell>
                <mxCell id="j6BQ6q7e4mZp7AfNVcr9-13" style="edgeStyle=none;html=1;strokeColor=default;dashed=1;" parent="j6BQ6q7e4mZp7AfNVcr9-1" source="j6BQ6q7e4mZp7AfNVcr9-14" target="17xcBczWS7s4shoctvgW-10" edge="1">
                    <mxGeometry relative="1" as="geometry"/>
                </mxCell>
                <mxCell id="j6BQ6q7e4mZp7AfNVcr9-14" value="dw.dim_product" style="shape=datastore;whiteSpace=wrap;html=1;labelPosition=center;verticalLabelPosition=top;align=center;verticalAlign=bottom;" parent="j6BQ6q7e4mZp7AfNVcr9-1" vertex="1">
                    <mxGeometry x="495" y="488" width="60" height="60" as="geometry"/>
                </mxCell>
                <mxCell id="j6BQ6q7e4mZp7AfNVcr9-15" style="edgeStyle=none;html=1;strokeColor=default;dashed=1;" parent="j6BQ6q7e4mZp7AfNVcr9-1" source="j6BQ6q7e4mZp7AfNVcr9-16" target="17xcBczWS7s4shoctvgW-10" edge="1">
                    <mxGeometry relative="1" as="geometry"/>
                </mxCell>
                <mxCell id="j6BQ6q7e4mZp7AfNVcr9-16" value="dsa.categories" style="shape=datastore;whiteSpace=wrap;html=1;labelPosition=center;verticalLabelPosition=top;align=center;verticalAlign=bottom;" parent="j6BQ6q7e4mZp7AfNVcr9-1" vertex="1">
                    <mxGeometry x="355" y="488" width="60" height="60" as="geometry"/>
                </mxCell>
                <mxCell id="j6BQ6q7e4mZp7AfNVcr9-17" style="html=1;dashed=1;strokeColor=default;" parent="j6BQ6q7e4mZp7AfNVcr9-1" source="j6BQ6q7e4mZp7AfNVcr9-12" target="17xcBczWS7s4shoctvgW-10" edge="1">
                    <mxGeometry relative="1" as="geometry">
                        <mxPoint x="639" y="332.08695652173947" as="sourcePoint"/>
                        <mxPoint x="683.75" y="371" as="targetPoint"/>
                    </mxGeometry>
                </mxCell>
                <mxCell id="17xcBczWS7s4shoctvgW-25" style="edgeStyle=orthogonalEdgeStyle;html=1;fillColor=#f8cecc;strokeColor=#b85450;strokeWidth=2;" edge="1" parent="j6BQ6q7e4mZp7AfNVcr9-1" source="j6BQ6q7e4mZp7AfNVcr9-19" target="j6BQ6q7e4mZp7AfNVcr9-56">
                    <mxGeometry relative="1" as="geometry">
                        <Array as="points">
                            <mxPoint x="831" y="1017"/>
                            <mxPoint x="831" y="421"/>
                        </Array>
                    </mxGeometry>
                </mxCell>
                <mxCell id="17xcBczWS7s4shoctvgW-29" style="edgeStyle=orthogonalEdgeStyle;html=1;fillColor=#dae8fc;strokeColor=#6c8ebf;strokeWidth=2;" edge="1" parent="j6BQ6q7e4mZp7AfNVcr9-1" source="j6BQ6q7e4mZp7AfNVcr9-19" target="j6BQ6q7e4mZp7AfNVcr9-54">
                    <mxGeometry relative="1" as="geometry">
                        <Array as="points">
                            <mxPoint x="1031" y="1031"/>
                            <mxPoint x="1031" y="884"/>
                        </Array>
                    </mxGeometry>
                </mxCell>
                <mxCell id="17xcBczWS7s4shoctvgW-34" style="edgeStyle=orthogonalEdgeStyle;sketch=0;html=1;strokeWidth=2;" edge="1" parent="j6BQ6q7e4mZp7AfNVcr9-1" source="j6BQ6q7e4mZp7AfNVcr9-19" target="j6BQ6q7e4mZp7AfNVcr9-50">
                    <mxGeometry relative="1" as="geometry">
                        <Array as="points">
                            <mxPoint x="1128" y="1046"/>
                            <mxPoint x="1128" y="545"/>
                        </Array>
                    </mxGeometry>
                </mxCell>
                <mxCell id="j6BQ6q7e4mZp7AfNVcr9-19" value="#SCD#&lt;br&gt;- Load to Warehouse Dimension" style="points=[[0.25,0,0],[0.5,0,0],[0.75,0,0],[1,0.25,0],[1,0.5,0],[1,0.75,0],[0.75,1,0],[0.5,1,0],[0.25,1,0],[0,0.75,0],[0,0.5,0],[0,0.25,0]];shape=mxgraph.bpmn.task;whiteSpace=wrap;rectStyle=rounded;size=10;html=1;taskMarker=abstract;isLoopSub=1;" parent="j6BQ6q7e4mZp7AfNVcr9-1" vertex="1">
                    <mxGeometry x="655.5" y="998" width="126" height="78" as="geometry"/>
                </mxCell>
                <mxCell id="j6BQ6q7e4mZp7AfNVcr9-20" value="dsa.locations" style="shape=datastore;whiteSpace=wrap;html=1;labelPosition=center;verticalLabelPosition=top;align=center;verticalAlign=bottom;" parent="j6BQ6q7e4mZp7AfNVcr9-1" vertex="1">
                    <mxGeometry x="233.5" y="926" width="60" height="60" as="geometry"/>
                </mxCell>
                <mxCell id="j6BQ6q7e4mZp7AfNVcr9-21" value="dw.dim_warehouse" style="shape=datastore;whiteSpace=wrap;html=1;labelPosition=center;verticalLabelPosition=top;align=center;verticalAlign=bottom;" parent="j6BQ6q7e4mZp7AfNVcr9-1" vertex="1">
                    <mxGeometry x="523.5" y="823" width="60" height="60" as="geometry"/>
                </mxCell>
                <mxCell id="j6BQ6q7e4mZp7AfNVcr9-22" style="edgeStyle=none;html=1;strokeColor=default;dashed=1;" parent="j6BQ6q7e4mZp7AfNVcr9-1" source="j6BQ6q7e4mZp7AfNVcr9-23" target="17xcBczWS7s4shoctvgW-13" edge="1">
                    <mxGeometry relative="1" as="geometry"/>
                </mxCell>
                <mxCell id="j6BQ6q7e4mZp7AfNVcr9-23" value="dsa.warehouses" style="shape=datastore;whiteSpace=wrap;html=1;labelPosition=center;verticalLabelPosition=top;align=center;verticalAlign=bottom;" parent="j6BQ6q7e4mZp7AfNVcr9-1" vertex="1">
                    <mxGeometry x="327.5" y="768" width="60" height="60" as="geometry"/>
                </mxCell>
                <mxCell id="j6BQ6q7e4mZp7AfNVcr9-24" style="html=1;dashed=1;strokeColor=default;" parent="j6BQ6q7e4mZp7AfNVcr9-1" source="j6BQ6q7e4mZp7AfNVcr9-20" target="17xcBczWS7s4shoctvgW-13" edge="1">
                    <mxGeometry relative="1" as="geometry">
                        <mxPoint x="-690.5" y="729.0869565217395" as="sourcePoint"/>
                        <mxPoint x="-645.75" y="768" as="targetPoint"/>
                    </mxGeometry>
                </mxCell>
                <mxCell id="j6BQ6q7e4mZp7AfNVcr9-25" value="dsa.countries" style="shape=datastore;whiteSpace=wrap;html=1;labelPosition=center;verticalLabelPosition=top;align=center;verticalAlign=bottom;" parent="j6BQ6q7e4mZp7AfNVcr9-1" vertex="1">
                    <mxGeometry x="280.5" y="846" width="60" height="60" as="geometry"/>
                </mxCell>
                <mxCell id="j6BQ6q7e4mZp7AfNVcr9-26" value="dsa.regions" style="shape=datastore;whiteSpace=wrap;html=1;labelPosition=center;verticalLabelPosition=top;align=center;verticalAlign=bottom;" parent="j6BQ6q7e4mZp7AfNVcr9-1" vertex="1">
                    <mxGeometry x="404.5" y="781" width="60" height="60" as="geometry"/>
                </mxCell>
                <mxCell id="j6BQ6q7e4mZp7AfNVcr9-27" style="edgeStyle=none;html=1;strokeColor=default;dashed=1;" parent="j6BQ6q7e4mZp7AfNVcr9-1" source="j6BQ6q7e4mZp7AfNVcr9-25" target="17xcBczWS7s4shoctvgW-13" edge="1">
                    <mxGeometry relative="1" as="geometry">
                        <mxPoint x="693.3571428571427" y="828" as="sourcePoint"/>
                        <mxPoint x="717.1666666666665" y="1078" as="targetPoint"/>
                    </mxGeometry>
                </mxCell>
                <mxCell id="j6BQ6q7e4mZp7AfNVcr9-28" style="edgeStyle=none;html=1;strokeColor=default;dashed=1;" parent="j6BQ6q7e4mZp7AfNVcr9-1" source="j6BQ6q7e4mZp7AfNVcr9-26" target="17xcBczWS7s4shoctvgW-13" edge="1">
                    <mxGeometry relative="1" as="geometry">
                        <mxPoint x="693.3571428571427" y="828" as="sourcePoint"/>
                        <mxPoint x="717.1666666666665" y="1078" as="targetPoint"/>
                    </mxGeometry>
                </mxCell>
                <mxCell id="j6BQ6q7e4mZp7AfNVcr9-29" style="edgeStyle=none;html=1;strokeColor=default;dashed=1;" parent="j6BQ6q7e4mZp7AfNVcr9-1" source="17xcBczWS7s4shoctvgW-13" target="j6BQ6q7e4mZp7AfNVcr9-21" edge="1">
                    <mxGeometry relative="1" as="geometry">
                        <mxPoint x="613.5" y="997" as="sourcePoint"/>
                        <mxPoint x="727.5" y="1078" as="targetPoint"/>
                    </mxGeometry>
                </mxCell>
                <mxCell id="17xcBczWS7s4shoctvgW-26" style="edgeStyle=orthogonalEdgeStyle;html=1;fillColor=#f8cecc;strokeColor=#b85450;exitX=1;exitY=0.25;exitDx=0;exitDy=0;exitPerimeter=0;strokeWidth=2;" edge="1" parent="j6BQ6q7e4mZp7AfNVcr9-1" source="j6BQ6q7e4mZp7AfNVcr9-31">
                    <mxGeometry relative="1" as="geometry">
                        <mxPoint x="786" y="1285" as="sourcePoint"/>
                        <mxPoint x="1170" y="421.9999999999998" as="targetPoint"/>
                        <Array as="points">
                            <mxPoint x="831" y="1279"/>
                            <mxPoint x="831" y="422"/>
                        </Array>
                    </mxGeometry>
                </mxCell>
                <mxCell id="17xcBczWS7s4shoctvgW-28" style="edgeStyle=orthogonalEdgeStyle;html=1;fillColor=#d5e8d4;strokeColor=#82b366;strokeWidth=2;" edge="1" parent="j6BQ6q7e4mZp7AfNVcr9-1" source="j6BQ6q7e4mZp7AfNVcr9-31" target="j6BQ6q7e4mZp7AfNVcr9-52">
                    <mxGeometry relative="1" as="geometry">
                        <Array as="points">
                            <mxPoint x="938" y="1294"/>
                            <mxPoint x="938" y="741"/>
                        </Array>
                    </mxGeometry>
                </mxCell>
                <mxCell id="17xcBczWS7s4shoctvgW-33" style="edgeStyle=orthogonalEdgeStyle;html=1;strokeWidth=2;" edge="1" parent="j6BQ6q7e4mZp7AfNVcr9-1">
                    <mxGeometry relative="1" as="geometry">
                        <mxPoint x="781.5" y="1310.9999999999995" as="sourcePoint"/>
                        <mxPoint x="1169" y="546" as="targetPoint"/>
                        <Array as="points">
                            <mxPoint x="781" y="1315"/>
                            <mxPoint x="1128" y="1315"/>
                            <mxPoint x="1128" y="546"/>
                        </Array>
                    </mxGeometry>
                </mxCell>
                <mxCell id="j6BQ6q7e4mZp7AfNVcr9-31" value="#SCD-T1#&lt;br&gt;- Load to Employee Dimension" style="points=[[0.25,0,0],[0.5,0,0],[0.75,0,0],[1,0.25,0],[1,0.5,0],[1,0.75,0],[0.75,1,0],[0.5,1,0],[0.25,1,0],[0,0.75,0],[0,0.5,0],[0,0.25,0]];shape=mxgraph.bpmn.task;whiteSpace=wrap;rectStyle=rounded;size=10;html=1;taskMarker=abstract;isLoopSub=1;" parent="j6BQ6q7e4mZp7AfNVcr9-1" vertex="1">
                    <mxGeometry x="658.5" y="1259" width="123" height="78" as="geometry"/>
                </mxCell>
                <mxCell id="j6BQ6q7e4mZp7AfNVcr9-32" value="dw.dim_employee" style="shape=datastore;whiteSpace=wrap;html=1;labelPosition=center;verticalLabelPosition=top;align=center;verticalAlign=bottom;" parent="j6BQ6q7e4mZp7AfNVcr9-1" vertex="1">
                    <mxGeometry x="456" y="1134" width="60" height="60" as="geometry"/>
                </mxCell>
                <mxCell id="j6BQ6q7e4mZp7AfNVcr9-33" value="dsa.employee" style="shape=datastore;whiteSpace=wrap;html=1;labelPosition=center;verticalLabelPosition=top;align=center;verticalAlign=bottom;" parent="j6BQ6q7e4mZp7AfNVcr9-1" vertex="1">
                    <mxGeometry x="325" y="1134" width="60" height="60" as="geometry"/>
                </mxCell>
                <mxCell id="j6BQ6q7e4mZp7AfNVcr9-34" style="html=1;dashed=1;strokeColor=default;" parent="j6BQ6q7e4mZp7AfNVcr9-1" source="j6BQ6q7e4mZp7AfNVcr9-33" target="17xcBczWS7s4shoctvgW-15" edge="1">
                    <mxGeometry relative="1" as="geometry">
                        <mxPoint x="637" y="923.173913043478" as="sourcePoint"/>
                        <mxPoint x="674.6470588235293" y="951" as="targetPoint"/>
                    </mxGeometry>
                </mxCell>
                <mxCell id="j6BQ6q7e4mZp7AfNVcr9-35" style="html=1;dashed=1;strokeColor=default;" parent="j6BQ6q7e4mZp7AfNVcr9-1" source="17xcBczWS7s4shoctvgW-15" target="j6BQ6q7e4mZp7AfNVcr9-32" edge="1">
                    <mxGeometry relative="1" as="geometry">
                        <mxPoint x="661.2857142857142" y="1191" as="sourcePoint"/>
                        <mxPoint x="693.6666666666665" y="1231" as="targetPoint"/>
                    </mxGeometry>
                </mxCell>
                <mxCell id="j6BQ6q7e4mZp7AfNVcr9-49" style="edgeStyle=orthogonalEdgeStyle;html=1;strokeColor=default;" parent="j6BQ6q7e4mZp7AfNVcr9-1" source="j6BQ6q7e4mZp7AfNVcr9-50" target="j6BQ6q7e4mZp7AfNVcr9-58" edge="1">
                    <mxGeometry relative="1" as="geometry">
                        <Array as="points">
                            <mxPoint x="1305" y="545"/>
                            <mxPoint x="1305" y="627"/>
                        </Array>
                    </mxGeometry>
                </mxCell>
                <mxCell id="j6BQ6q7e4mZp7AfNVcr9-50" value="Load Cancellation Fact" style="points=[[0.25,0,0],[0.5,0,0],[0.75,0,0],[1,0.25,0],[1,0.5,0],[1,0.75,0],[0.75,1,0],[0.5,1,0],[0.25,1,0],[0,0.75,0],[0,0.5,0],[0,0.25,0]];shape=mxgraph.bpmn.task;whiteSpace=wrap;rectStyle=rounded;size=10;html=1;taskMarker=abstract;isLoopSub=1;fillColor=#f5f5f5;fontColor=#333333;strokeColor=#666666;" parent="j6BQ6q7e4mZp7AfNVcr9-1" vertex="1">
                    <mxGeometry x="1169" y="510" width="110" height="70" as="geometry"/>
                </mxCell>
                <mxCell id="j6BQ6q7e4mZp7AfNVcr9-51" style="edgeStyle=orthogonalEdgeStyle;html=1;strokeColor=default;" parent="j6BQ6q7e4mZp7AfNVcr9-1" source="j6BQ6q7e4mZp7AfNVcr9-52" target="j6BQ6q7e4mZp7AfNVcr9-58" edge="1">
                    <mxGeometry relative="1" as="geometry">
                        <Array as="points">
                            <mxPoint x="1306" y="741"/>
                            <mxPoint x="1306" y="627"/>
                        </Array>
                    </mxGeometry>
                </mxCell>
                <mxCell id="j6BQ6q7e4mZp7AfNVcr9-52" value="Load Order Payment Fact" style="points=[[0.25,0,0],[0.5,0,0],[0.75,0,0],[1,0.25,0],[1,0.5,0],[1,0.75,0],[0.75,1,0],[0.5,1,0],[0.25,1,0],[0,0.75,0],[0,0.5,0],[0,0.25,0]];shape=mxgraph.bpmn.task;whiteSpace=wrap;rectStyle=rounded;size=10;html=1;taskMarker=abstract;isLoopSub=1;fillColor=#d5e8d4;strokeColor=#82b366;" parent="j6BQ6q7e4mZp7AfNVcr9-1" vertex="1">
                    <mxGeometry x="1169" y="706" width="110" height="70" as="geometry"/>
                </mxCell>
                <mxCell id="j6BQ6q7e4mZp7AfNVcr9-53" style="edgeStyle=orthogonalEdgeStyle;html=1;strokeColor=default;" parent="j6BQ6q7e4mZp7AfNVcr9-1" source="j6BQ6q7e4mZp7AfNVcr9-54" target="j6BQ6q7e4mZp7AfNVcr9-58" edge="1">
                    <mxGeometry relative="1" as="geometry"/>
                </mxCell>
                <mxCell id="j6BQ6q7e4mZp7AfNVcr9-54" value="Load Shippment Fact" style="points=[[0.25,0,0],[0.5,0,0],[0.75,0,0],[1,0.25,0],[1,0.5,0],[1,0.75,0],[0.75,1,0],[0.5,1,0],[0.25,1,0],[0,0.75,0],[0,0.5,0],[0,0.25,0]];shape=mxgraph.bpmn.task;whiteSpace=wrap;rectStyle=rounded;size=10;html=1;taskMarker=abstract;isLoopSub=1;fillColor=#dae8fc;strokeColor=#6c8ebf;" parent="j6BQ6q7e4mZp7AfNVcr9-1" vertex="1">
                    <mxGeometry x="1169" y="846" width="110" height="70" as="geometry"/>
                </mxCell>
                <mxCell id="j6BQ6q7e4mZp7AfNVcr9-55" style="edgeStyle=orthogonalEdgeStyle;html=1;strokeColor=default;" parent="j6BQ6q7e4mZp7AfNVcr9-1" source="j6BQ6q7e4mZp7AfNVcr9-56" target="j6BQ6q7e4mZp7AfNVcr9-58" edge="1">
                    <mxGeometry relative="1" as="geometry"/>
                </mxCell>
                <mxCell id="j6BQ6q7e4mZp7AfNVcr9-56" value="Load Order Fact" style="points=[[0.25,0,0],[0.5,0,0],[0.75,0,0],[1,0.25,0],[1,0.5,0],[1,0.75,0],[0.75,1,0],[0.5,1,0],[0.25,1,0],[0,0.75,0],[0,0.5,0],[0,0.25,0]];shape=mxgraph.bpmn.task;whiteSpace=wrap;rectStyle=rounded;size=10;html=1;taskMarker=abstract;isLoopSub=1;fillColor=#f8cecc;strokeColor=#b85450;" parent="j6BQ6q7e4mZp7AfNVcr9-1" vertex="1">
                    <mxGeometry x="1169" y="392" width="110" height="70" as="geometry"/>
                </mxCell>
                <mxCell id="j6BQ6q7e4mZp7AfNVcr9-57" style="edgeStyle=orthogonalEdgeStyle;html=1;strokeColor=default;" parent="j6BQ6q7e4mZp7AfNVcr9-1" source="j6BQ6q7e4mZp7AfNVcr9-58" target="j6BQ6q7e4mZp7AfNVcr9-59" edge="1">
                    <mxGeometry relative="1" as="geometry"/>
                </mxCell>
                <mxCell id="j6BQ6q7e4mZp7AfNVcr9-58" value="" style="points=[[0.25,0.25,0],[0.5,0,0],[0.75,0.25,0],[1,0.5,0],[0.75,0.75,0],[0.5,1,0],[0.25,0.75,0],[0,0.5,0]];shape=mxgraph.bpmn.gateway2;html=1;verticalLabelPosition=bottom;labelBackgroundColor=#ffffff;verticalAlign=top;align=center;perimeter=rhombusPerimeter;outlineConnect=0;outline=none;symbol=none;gwType=parallel;" parent="j6BQ6q7e4mZp7AfNVcr9-1" vertex="1">
                    <mxGeometry x="1328" y="602" width="50" height="50" as="geometry"/>
                </mxCell>
                <mxCell id="j6BQ6q7e4mZp7AfNVcr9-59" value="" style="points=[[0.145,0.145,0],[0.5,0,0],[0.855,0.145,0],[1,0.5,0],[0.855,0.855,0],[0.5,1,0],[0.145,0.855,0],[0,0.5,0]];shape=mxgraph.bpmn.event;html=1;verticalLabelPosition=bottom;labelBackgroundColor=#ffffff;verticalAlign=top;align=center;perimeter=ellipsePerimeter;outlineConnect=0;aspect=fixed;outline=end;symbol=terminate2;" parent="j6BQ6q7e4mZp7AfNVcr9-1" vertex="1">
                    <mxGeometry x="1419" y="602" width="50" height="50" as="geometry"/>
                </mxCell>
                <mxCell id="17xcBczWS7s4shoctvgW-19" style="edgeStyle=orthogonalEdgeStyle;html=1;fillColor=#f8cecc;strokeColor=#b85450;strokeWidth=2;" edge="1" parent="j6BQ6q7e4mZp7AfNVcr9-1" source="j6BQ6q7e4mZp7AfNVcr9-61" target="j6BQ6q7e4mZp7AfNVcr9-56">
                    <mxGeometry relative="1" as="geometry">
                        <Array as="points">
                            <mxPoint x="831" y="115"/>
                            <mxPoint x="831" y="422"/>
                        </Array>
                    </mxGeometry>
                </mxCell>
                <mxCell id="17xcBczWS7s4shoctvgW-20" style="edgeStyle=orthogonalEdgeStyle;html=1;strokeWidth=2;" edge="1" parent="j6BQ6q7e4mZp7AfNVcr9-1" source="j6BQ6q7e4mZp7AfNVcr9-61" target="j6BQ6q7e4mZp7AfNVcr9-50">
                    <mxGeometry relative="1" as="geometry">
                        <Array as="points">
                            <mxPoint x="1128" y="74"/>
                            <mxPoint x="1128" y="545"/>
                        </Array>
                    </mxGeometry>
                </mxCell>
                <mxCell id="17xcBczWS7s4shoctvgW-21" style="edgeStyle=orthogonalEdgeStyle;html=1;fillColor=#d5e8d4;strokeColor=#82b366;strokeWidth=2;" edge="1" parent="j6BQ6q7e4mZp7AfNVcr9-1" source="j6BQ6q7e4mZp7AfNVcr9-61" target="j6BQ6q7e4mZp7AfNVcr9-52">
                    <mxGeometry relative="1" as="geometry">
                        <Array as="points">
                            <mxPoint x="936" y="102"/>
                            <mxPoint x="936" y="741"/>
                        </Array>
                    </mxGeometry>
                </mxCell>
                <mxCell id="17xcBczWS7s4shoctvgW-22" style="edgeStyle=orthogonalEdgeStyle;html=1;fillColor=#dae8fc;strokeColor=#6c8ebf;strokeWidth=2;" edge="1" parent="j6BQ6q7e4mZp7AfNVcr9-1" source="j6BQ6q7e4mZp7AfNVcr9-61" target="j6BQ6q7e4mZp7AfNVcr9-54">
                    <mxGeometry relative="1" as="geometry">
                        <Array as="points">
                            <mxPoint x="1030" y="89"/>
                            <mxPoint x="1030" y="884"/>
                        </Array>
                    </mxGeometry>
                </mxCell>
                <mxCell id="j6BQ6q7e4mZp7AfNVcr9-61" value="- Load Date Dimension" style="points=[[0.25,0,0],[0.5,0,0],[0.75,0,0],[1,0.25,0],[1,0.5,0],[1,0.75,0],[0.75,1,0],[0.5,1,0],[0.25,1,0],[0,0.75,0],[0,0.5,0],[0,0.25,0]];shape=mxgraph.bpmn.task;whiteSpace=wrap;rectStyle=rounded;size=10;html=1;taskMarker=abstract;isLoopSub=1;" parent="j6BQ6q7e4mZp7AfNVcr9-1" vertex="1">
                    <mxGeometry x="659" y="59" width="110" height="70" as="geometry"/>
                </mxCell>
                <mxCell id="17xcBczWS7s4shoctvgW-2" style="edgeStyle=none;html=1;" edge="1" parent="j6BQ6q7e4mZp7AfNVcr9-1" source="17xcBczWS7s4shoctvgW-1" target="j6BQ6q7e4mZp7AfNVcr9-4">
                    <mxGeometry relative="1" as="geometry"/>
                </mxCell>
                <mxCell id="17xcBczWS7s4shoctvgW-1" value="#DCI#&lt;br&gt;- Customer Dimension" style="points=[[0.25,0,0],[0.5,0,0],[0.75,0,0],[1,0.25,0],[1,0.5,0],[1,0.75,0],[0.75,1,0],[0.5,1,0],[0.25,1,0],[0,0.75,0],[0,0.5,0],[0,0.25,0]];shape=mxgraph.bpmn.task;whiteSpace=wrap;rectStyle=rounded;size=10;html=1;taskMarker=abstract;isLoopSub=1;" vertex="1" parent="j6BQ6q7e4mZp7AfNVcr9-1">
                    <mxGeometry x="383" y="318" width="110" height="70" as="geometry"/>
                </mxCell>
                <mxCell id="17xcBczWS7s4shoctvgW-4" style="html=1;dashed=1;strokeColor=default;" edge="1" parent="j6BQ6q7e4mZp7AfNVcr9-1" source="j6BQ6q7e4mZp7AfNVcr9-6" target="17xcBczWS7s4shoctvgW-1">
                    <mxGeometry relative="1" as="geometry">
                        <mxPoint x="643.9999999999998" y="555.2727272727273" as="sourcePoint"/>
                        <mxPoint x="685.5" y="593" as="targetPoint"/>
                    </mxGeometry>
                </mxCell>
                <mxCell id="17xcBczWS7s4shoctvgW-5" style="html=1;dashed=1;strokeColor=default;" edge="1" parent="j6BQ6q7e4mZp7AfNVcr9-1" source="17xcBczWS7s4shoctvgW-1" target="j6BQ6q7e4mZp7AfNVcr9-7">
                    <mxGeometry relative="1" as="geometry">
                        <mxPoint x="517" y="243" as="sourcePoint"/>
                        <mxPoint x="489.30172413793093" y="328" as="targetPoint"/>
                    </mxGeometry>
                </mxCell>
                <mxCell id="17xcBczWS7s4shoctvgW-6" style="html=1;dashed=1;strokeColor=default;" edge="1" parent="j6BQ6q7e4mZp7AfNVcr9-1" source="j6BQ6q7e4mZp7AfNVcr9-9" target="17xcBczWS7s4shoctvgW-1">
                    <mxGeometry relative="1" as="geometry">
                        <mxPoint x="448.74137931034466" y="287" as="sourcePoint"/>
                        <mxPoint x="499.30172413793093" y="338" as="targetPoint"/>
                    </mxGeometry>
                </mxCell>
                <mxCell id="j6BQ6q7e4mZp7AfNVcr9-37" value="" style="points=[[0.145,0.145,0],[0.5,0,0],[0.855,0.145,0],[1,0.5,0],[0.855,0.855,0],[0.5,1,0],[0.145,0.855,0],[0,0.5,0]];shape=mxgraph.bpmn.event;html=1;verticalLabelPosition=bottom;labelBackgroundColor=#ffffff;verticalAlign=top;align=center;perimeter=ellipsePerimeter;outlineConnect=0;aspect=fixed;outline=standard;symbol=timer;" parent="j6BQ6q7e4mZp7AfNVcr9-1" vertex="1">
                    <mxGeometry x="45" y="635" width="50" height="50" as="geometry"/>
                </mxCell>
                <mxCell id="17xcBczWS7s4shoctvgW-7" style="edgeStyle=orthogonalEdgeStyle;html=1;" edge="1" parent="j6BQ6q7e4mZp7AfNVcr9-1" source="j6BQ6q7e4mZp7AfNVcr9-43" target="j6BQ6q7e4mZp7AfNVcr9-61">
                    <mxGeometry relative="1" as="geometry">
                        <Array as="points">
                            <mxPoint x="170" y="94"/>
                        </Array>
                    </mxGeometry>
                </mxCell>
                <mxCell id="17xcBczWS7s4shoctvgW-9" style="edgeStyle=orthogonalEdgeStyle;html=1;" edge="1" parent="j6BQ6q7e4mZp7AfNVcr9-1" source="j6BQ6q7e4mZp7AfNVcr9-43" target="17xcBczWS7s4shoctvgW-1">
                    <mxGeometry relative="1" as="geometry">
                        <Array as="points">
                            <mxPoint x="170" y="353"/>
                        </Array>
                    </mxGeometry>
                </mxCell>
                <mxCell id="17xcBczWS7s4shoctvgW-12" style="edgeStyle=orthogonalEdgeStyle;html=1;" edge="1" parent="j6BQ6q7e4mZp7AfNVcr9-1" source="j6BQ6q7e4mZp7AfNVcr9-43" target="17xcBczWS7s4shoctvgW-10">
                    <mxGeometry relative="1" as="geometry"/>
                </mxCell>
                <mxCell id="17xcBczWS7s4shoctvgW-17" style="edgeStyle=orthogonalEdgeStyle;html=1;" edge="1" parent="j6BQ6q7e4mZp7AfNVcr9-1" source="j6BQ6q7e4mZp7AfNVcr9-43" target="17xcBczWS7s4shoctvgW-15">
                    <mxGeometry relative="1" as="geometry">
                        <Array as="points">
                            <mxPoint x="170" y="1298"/>
                        </Array>
                    </mxGeometry>
                </mxCell>
                <mxCell id="17xcBczWS7s4shoctvgW-18" style="edgeStyle=orthogonalEdgeStyle;html=1;" edge="1" parent="j6BQ6q7e4mZp7AfNVcr9-1" source="j6BQ6q7e4mZp7AfNVcr9-43" target="17xcBczWS7s4shoctvgW-13">
                    <mxGeometry relative="1" as="geometry">
                        <Array as="points">
                            <mxPoint x="170" y="1037"/>
                        </Array>
                    </mxGeometry>
                </mxCell>
                <mxCell id="j6BQ6q7e4mZp7AfNVcr9-43" value="" style="points=[[0.25,0.25,0],[0.5,0,0],[0.75,0.25,0],[1,0.5,0],[0.75,0.75,0],[0.5,1,0],[0.25,0.75,0],[0,0.5,0]];shape=mxgraph.bpmn.gateway2;html=1;verticalLabelPosition=bottom;labelBackgroundColor=#ffffff;verticalAlign=top;align=center;perimeter=rhombusPerimeter;outlineConnect=0;outline=none;symbol=none;gwType=parallel;" parent="j6BQ6q7e4mZp7AfNVcr9-1" vertex="1">
                    <mxGeometry x="145" y="635" width="50" height="50" as="geometry"/>
                </mxCell>
                <mxCell id="j6BQ6q7e4mZp7AfNVcr9-36" style="edgeStyle=orthogonalEdgeStyle;html=1;strokeColor=default;" parent="j6BQ6q7e4mZp7AfNVcr9-1" source="j6BQ6q7e4mZp7AfNVcr9-37" target="j6BQ6q7e4mZp7AfNVcr9-43" edge="1">
                    <mxGeometry relative="1" as="geometry"/>
                </mxCell>
                <mxCell id="17xcBczWS7s4shoctvgW-11" style="edgeStyle=orthogonalEdgeStyle;html=1;" edge="1" parent="j6BQ6q7e4mZp7AfNVcr9-1" source="17xcBczWS7s4shoctvgW-10" target="j6BQ6q7e4mZp7AfNVcr9-11">
                    <mxGeometry relative="1" as="geometry"/>
                </mxCell>
                <mxCell id="17xcBczWS7s4shoctvgW-10" value="#DCI#&lt;br&gt;- Product Dimension" style="points=[[0.25,0,0],[0.5,0,0],[0.75,0,0],[1,0.25,0],[1,0.5,0],[1,0.75,0],[0.75,1,0],[0.5,1,0],[0.25,1,0],[0,0.75,0],[0,0.5,0],[0,0.25,0]];shape=mxgraph.bpmn.task;whiteSpace=wrap;rectStyle=rounded;size=10;html=1;taskMarker=abstract;isLoopSub=1;" vertex="1" parent="j6BQ6q7e4mZp7AfNVcr9-1">
                    <mxGeometry x="378" y="626" width="110" height="70" as="geometry"/>
                </mxCell>
                <mxCell id="17xcBczWS7s4shoctvgW-14" style="edgeStyle=orthogonalEdgeStyle;html=1;" edge="1" parent="j6BQ6q7e4mZp7AfNVcr9-1" source="17xcBczWS7s4shoctvgW-13" target="j6BQ6q7e4mZp7AfNVcr9-19">
                    <mxGeometry relative="1" as="geometry"/>
                </mxCell>
                <mxCell id="17xcBczWS7s4shoctvgW-13" value="#DCI#&lt;br&gt;- Warehouse Dimension" style="points=[[0.25,0,0],[0.5,0,0],[0.75,0,0],[1,0.25,0],[1,0.5,0],[1,0.75,0],[0.75,1,0],[0.5,1,0],[0.25,1,0],[0,0.75,0],[0,0.5,0],[0,0.25,0]];shape=mxgraph.bpmn.task;whiteSpace=wrap;rectStyle=rounded;size=10;html=1;taskMarker=abstract;isLoopSub=1;" vertex="1" parent="j6BQ6q7e4mZp7AfNVcr9-1">
                    <mxGeometry x="379.5" y="998" width="126" height="78" as="geometry"/>
                </mxCell>
                <mxCell id="17xcBczWS7s4shoctvgW-16" style="edgeStyle=orthogonalEdgeStyle;html=1;" edge="1" parent="j6BQ6q7e4mZp7AfNVcr9-1" source="17xcBczWS7s4shoctvgW-15" target="j6BQ6q7e4mZp7AfNVcr9-31">
                    <mxGeometry relative="1" as="geometry"/>
                </mxCell>
                <mxCell id="17xcBczWS7s4shoctvgW-15" value="#DCI#&lt;br&gt;- Employee Dimension" style="points=[[0.25,0,0],[0.5,0,0],[0.75,0,0],[1,0.25,0],[1,0.5,0],[1,0.75,0],[0.75,1,0],[0.5,1,0],[0.25,1,0],[0,0.75,0],[0,0.5,0],[0,0.25,0]];shape=mxgraph.bpmn.task;whiteSpace=wrap;rectStyle=rounded;size=10;html=1;taskMarker=abstract;isLoopSub=1;" vertex="1" parent="j6BQ6q7e4mZp7AfNVcr9-1">
                    <mxGeometry x="376" y="1259" width="126" height="78" as="geometry"/>
                </mxCell>
            </root>
        </mxGraphModel>
    </diagram>
    <diagram id="Oe8AxJ2DztCgBwsURGQF" name="DSA">
        <mxGraphModel dx="2039" dy="2544" grid="0" gridSize="10" guides="1" tooltips="1" connect="1" arrows="1" fold="1" page="1" pageScale="1" pageWidth="827" pageHeight="1169" math="0" shadow="0">
            <root>
                <mxCell id="0"/>
                <mxCell id="1" parent="0"/>
                <mxCell id="22" value="Data Staging Area" style="swimlane;horizontal=0;whiteSpace=wrap;html=1;fontStyle=1" parent="1" vertex="1">
                    <mxGeometry x="11" y="-1158" width="1160" height="1790" as="geometry"/>
                </mxCell>
                <mxCell id="25" style="edgeStyle=none;html=1;" parent="22" source="23" target="27" edge="1">
                    <mxGeometry relative="1" as="geometry">
                        <mxPoint x="150" y="900" as="targetPoint"/>
                    </mxGeometry>
                </mxCell>
                <mxCell id="23" value="" style="points=[[0.145,0.145,0],[0.5,0,0],[0.855,0.145,0],[1,0.5,0],[0.855,0.855,0],[0.5,1,0],[0.145,0.855,0],[0,0.5,0]];shape=mxgraph.bpmn.event;html=1;verticalLabelPosition=bottom;labelBackgroundColor=#ffffff;verticalAlign=top;align=center;perimeter=ellipsePerimeter;outlineConnect=0;aspect=fixed;outline=standard;symbol=general;" parent="22" vertex="1">
                    <mxGeometry x="39.93" y="875" width="50" height="50" as="geometry"/>
                </mxCell>
                <mxCell id="31" style="edgeStyle=none;html=1;" parent="22" source="27" target="30" edge="1">
                    <mxGeometry relative="1" as="geometry"/>
                </mxCell>
                <mxCell id="27" value="Calculate and GetLastETLCutoffTime" style="rounded=1;whiteSpace=wrap;html=1;" parent="22" vertex="1">
                    <mxGeometry x="187" y="870" width="144" height="60" as="geometry"/>
                </mxCell>
                <mxCell id="48" style="edgeStyle=orthogonalEdgeStyle;html=1;" parent="22" source="30" target="15" edge="1">
                    <mxGeometry relative="1" as="geometry"/>
                </mxCell>
                <mxCell id="49" style="edgeStyle=orthogonalEdgeStyle;html=1;entryX=0;entryY=0.5;entryDx=0;entryDy=0;entryPerimeter=0;" parent="22" source="30" target="46" edge="1">
                    <mxGeometry relative="1" as="geometry"/>
                </mxCell>
                <mxCell id="51" style="edgeStyle=orthogonalEdgeStyle;html=1;entryX=0;entryY=0.5;entryDx=0;entryDy=0;entryPerimeter=0;" parent="22" source="30" target="47" edge="1">
                    <mxGeometry relative="1" as="geometry"/>
                </mxCell>
                <mxCell id="52" style="edgeStyle=orthogonalEdgeStyle;html=1;entryX=0;entryY=0.5;entryDx=0;entryDy=0;entryPerimeter=0;" parent="22" source="30" target="41" edge="1">
                    <mxGeometry relative="1" as="geometry"/>
                </mxCell>
                <mxCell id="53" style="edgeStyle=orthogonalEdgeStyle;html=1;entryX=0;entryY=0.5;entryDx=0;entryDy=0;entryPerimeter=0;" parent="22" source="30" target="40" edge="1">
                    <mxGeometry relative="1" as="geometry"/>
                </mxCell>
                <mxCell id="54" style="edgeStyle=orthogonalEdgeStyle;html=1;entryX=0;entryY=0.5;entryDx=0;entryDy=0;entryPerimeter=0;" parent="22" source="30" target="39" edge="1">
                    <mxGeometry relative="1" as="geometry"/>
                </mxCell>
                <mxCell id="55" style="edgeStyle=orthogonalEdgeStyle;html=1;entryX=0;entryY=0.5;entryDx=0;entryDy=0;entryPerimeter=0;" parent="22" source="30" target="35" edge="1">
                    <mxGeometry relative="1" as="geometry"/>
                </mxCell>
                <mxCell id="56" style="edgeStyle=orthogonalEdgeStyle;html=1;strokeColor=default;entryX=0;entryY=0.5;entryDx=0;entryDy=0;entryPerimeter=0;" parent="22" source="30" target="38" edge="1">
                    <mxGeometry relative="1" as="geometry"/>
                </mxCell>
                <mxCell id="57" style="edgeStyle=orthogonalEdgeStyle;html=1;entryX=0;entryY=0.5;entryDx=0;entryDy=0;entryPerimeter=0;strokeColor=default;" parent="22" source="30" target="32" edge="1">
                    <mxGeometry relative="1" as="geometry"/>
                </mxCell>
                <mxCell id="58" style="edgeStyle=orthogonalEdgeStyle;html=1;entryX=0;entryY=0.5;entryDx=0;entryDy=0;entryPerimeter=0;strokeColor=default;" parent="22" source="30" target="21" edge="1">
                    <mxGeometry relative="1" as="geometry"/>
                </mxCell>
                <mxCell id="59" style="edgeStyle=orthogonalEdgeStyle;html=1;entryX=0;entryY=0.5;entryDx=0;entryDy=0;entryPerimeter=0;strokeColor=default;" parent="22" source="30" target="33" edge="1">
                    <mxGeometry relative="1" as="geometry"/>
                </mxCell>
                <mxCell id="60" style="edgeStyle=orthogonalEdgeStyle;html=1;entryX=0;entryY=0.5;entryDx=0;entryDy=0;entryPerimeter=0;strokeColor=default;" parent="22" source="30" target="36" edge="1">
                    <mxGeometry relative="1" as="geometry"/>
                </mxCell>
                <mxCell id="61" style="edgeStyle=orthogonalEdgeStyle;html=1;entryX=0;entryY=0.5;entryDx=0;entryDy=0;entryPerimeter=0;strokeColor=default;" parent="22" source="30" target="34" edge="1">
                    <mxGeometry relative="1" as="geometry"/>
                </mxCell>
                <mxCell id="62" style="edgeStyle=orthogonalEdgeStyle;html=1;entryX=0;entryY=0.5;entryDx=0;entryDy=0;entryPerimeter=0;strokeColor=default;" parent="22" source="30" target="37" edge="1">
                    <mxGeometry relative="1" as="geometry"/>
                </mxCell>
                <mxCell id="63" style="edgeStyle=orthogonalEdgeStyle;html=1;entryX=0;entryY=0.5;entryDx=0;entryDy=0;entryPerimeter=0;strokeColor=default;" parent="22" source="30" target="45" edge="1">
                    <mxGeometry relative="1" as="geometry"/>
                </mxCell>
                <mxCell id="30" value="Clean DSA" style="rounded=1;whiteSpace=wrap;html=1;" parent="22" vertex="1">
                    <mxGeometry x="389" y="870" width="120" height="60" as="geometry"/>
                </mxCell>
                <mxCell id="87" style="edgeStyle=orthogonalEdgeStyle;html=1;strokeColor=default;" parent="22" source="15" target="95" edge="1">
                    <mxGeometry relative="1" as="geometry">
                        <mxPoint x="1009.93" y="900" as="targetPoint"/>
                    </mxGeometry>
                </mxCell>
                <mxCell id="15" value="- Extract Order Items Data" style="points=[[0.25,0,0],[0.5,0,0],[0.75,0,0],[1,0.25,0],[1,0.5,0],[1,0.75,0],[0.75,1,0],[0.5,1,0],[0.25,1,0],[0,0.75,0],[0,0.5,0],[0,0.25,0]];shape=mxgraph.bpmn.task;whiteSpace=wrap;rectStyle=rounded;size=10;html=1;taskMarker=abstract;isLoopSub=1;" parent="22" vertex="1">
                    <mxGeometry x="689.93" y="865" width="110" height="70" as="geometry"/>
                </mxCell>
                <mxCell id="89" style="edgeStyle=orthogonalEdgeStyle;html=1;strokeColor=default;" parent="22" source="21" target="95" edge="1">
                    <mxGeometry relative="1" as="geometry">
                        <mxPoint x="1009.93" y="900" as="targetPoint"/>
                    </mxGeometry>
                </mxCell>
                <mxCell id="21" value="- Extract Inventories Data" style="points=[[0.25,0,0],[0.5,0,0],[0.75,0,0],[1,0.25,0],[1,0.5,0],[1,0.75,0],[0.75,1,0],[0.5,1,0],[0.25,1,0],[0,0.75,0],[0,0.5,0],[0,0.25,0]];shape=mxgraph.bpmn.task;whiteSpace=wrap;rectStyle=rounded;size=10;html=1;taskMarker=abstract;isLoopSub=1;" parent="22" vertex="1">
                    <mxGeometry x="689.93" y="1040" width="110" height="70" as="geometry"/>
                </mxCell>
                <mxCell id="88" style="edgeStyle=orthogonalEdgeStyle;html=1;strokeColor=default;" parent="22" source="32" target="95" edge="1">
                    <mxGeometry relative="1" as="geometry">
                        <mxPoint x="1009.93" y="900" as="targetPoint"/>
                    </mxGeometry>
                </mxCell>
                <mxCell id="32" value="- Extract Locations Data" style="points=[[0.25,0,0],[0.5,0,0],[0.75,0,0],[1,0.25,0],[1,0.5,0],[1,0.75,0],[0.75,1,0],[0.5,1,0],[0.25,1,0],[0,0.75,0],[0,0.5,0],[0,0.25,0]];shape=mxgraph.bpmn.task;whiteSpace=wrap;rectStyle=rounded;size=10;html=1;taskMarker=abstract;isLoopSub=1;" parent="22" vertex="1">
                    <mxGeometry x="689.93" y="950" width="110" height="70" as="geometry"/>
                </mxCell>
                <mxCell id="90" style="edgeStyle=orthogonalEdgeStyle;html=1;strokeColor=default;" parent="22" source="33" target="95" edge="1">
                    <mxGeometry relative="1" as="geometry">
                        <mxPoint x="1009.93" y="900" as="targetPoint"/>
                    </mxGeometry>
                </mxCell>
                <mxCell id="33" value="- Extract Employees Data" style="points=[[0.25,0,0],[0.5,0,0],[0.75,0,0],[1,0.25,0],[1,0.5,0],[1,0.75,0],[0.75,1,0],[0.5,1,0],[0.25,1,0],[0,0.75,0],[0,0.5,0],[0,0.25,0]];shape=mxgraph.bpmn.task;whiteSpace=wrap;rectStyle=rounded;size=10;html=1;taskMarker=abstract;isLoopSub=1;" parent="22" vertex="1">
                    <mxGeometry x="689.93" y="1130" width="110" height="70" as="geometry"/>
                </mxCell>
                <mxCell id="92" style="edgeStyle=orthogonalEdgeStyle;html=1;strokeColor=default;" parent="22" source="34" target="95" edge="1">
                    <mxGeometry relative="1" as="geometry">
                        <mxPoint x="1009.93" y="900" as="targetPoint"/>
                    </mxGeometry>
                </mxCell>
                <mxCell id="34" value="- Extract Countries Data" style="points=[[0.25,0,0],[0.5,0,0],[0.75,0,0],[1,0.25,0],[1,0.5,0],[1,0.75,0],[0.75,1,0],[0.5,1,0],[0.25,1,0],[0,0.75,0],[0,0.5,0],[0,0.25,0]];shape=mxgraph.bpmn.task;whiteSpace=wrap;rectStyle=rounded;size=10;html=1;taskMarker=abstract;isLoopSub=1;" parent="22" vertex="1">
                    <mxGeometry x="689.93" y="1321" width="110" height="70" as="geometry"/>
                </mxCell>
                <mxCell id="91" style="edgeStyle=orthogonalEdgeStyle;html=1;strokeColor=default;" parent="22" source="36" target="95" edge="1">
                    <mxGeometry relative="1" as="geometry">
                        <mxPoint x="1009.93" y="900" as="targetPoint"/>
                    </mxGeometry>
                </mxCell>
                <mxCell id="36" value="- Extract Customers Data" style="points=[[0.25,0,0],[0.5,0,0],[0.75,0,0],[1,0.25,0],[1,0.5,0],[1,0.75,0],[0.75,1,0],[0.5,1,0],[0.25,1,0],[0,0.75,0],[0,0.5,0],[0,0.25,0]];shape=mxgraph.bpmn.task;whiteSpace=wrap;rectStyle=rounded;size=10;html=1;taskMarker=abstract;isLoopSub=1;" parent="22" vertex="1">
                    <mxGeometry x="689.93" y="1230" width="110" height="70" as="geometry"/>
                </mxCell>
                <mxCell id="93" style="edgeStyle=orthogonalEdgeStyle;html=1;strokeColor=default;" parent="22" source="37" target="95" edge="1">
                    <mxGeometry relative="1" as="geometry">
                        <mxPoint x="1009.93" y="900" as="targetPoint"/>
                    </mxGeometry>
                </mxCell>
                <mxCell id="37" value="- Extract Contacts Data" style="points=[[0.25,0,0],[0.5,0,0],[0.75,0,0],[1,0.25,0],[1,0.5,0],[1,0.75,0],[0.75,1,0],[0.5,1,0],[0.25,1,0],[0,0.75,0],[0,0.5,0],[0,0.25,0]];shape=mxgraph.bpmn.task;whiteSpace=wrap;rectStyle=rounded;size=10;html=1;taskMarker=abstract;isLoopSub=1;" parent="22" vertex="1">
                    <mxGeometry x="689.93" y="1411" width="110" height="70" as="geometry"/>
                </mxCell>
                <mxCell id="94" style="edgeStyle=orthogonalEdgeStyle;html=1;strokeColor=default;" parent="22" source="45" target="95" edge="1">
                    <mxGeometry relative="1" as="geometry">
                        <mxPoint x="1009.93" y="900" as="targetPoint"/>
                    </mxGeometry>
                </mxCell>
                <mxCell id="45" value="- Extract Deliveries Excel Data" style="points=[[0.25,0,0],[0.5,0,0],[0.75,0,0],[1,0.25,0],[1,0.5,0],[1,0.75,0],[0.75,1,0],[0.5,1,0],[0.25,1,0],[0,0.75,0],[0,0.5,0],[0,0.25,0]];shape=mxgraph.bpmn.task;whiteSpace=wrap;rectStyle=rounded;size=10;html=1;taskMarker=abstract;isLoopSub=1;" parent="22" vertex="1">
                    <mxGeometry x="689.93" y="1502" width="110" height="70" as="geometry"/>
                </mxCell>
                <mxCell id="86" style="edgeStyle=orthogonalEdgeStyle;html=1;strokeColor=default;" parent="22" source="46" target="95" edge="1">
                    <mxGeometry relative="1" as="geometry">
                        <mxPoint x="1009.93" y="900" as="targetPoint"/>
                    </mxGeometry>
                </mxCell>
                <mxCell id="46" value="- Extract Warehouses Data" style="points=[[0.25,0,0],[0.5,0,0],[0.75,0,0],[1,0.25,0],[1,0.5,0],[1,0.75,0],[0.75,1,0],[0.5,1,0],[0.25,1,0],[0,0.75,0],[0,0.5,0],[0,0.25,0]];shape=mxgraph.bpmn.task;whiteSpace=wrap;rectStyle=rounded;size=10;html=1;taskMarker=abstract;isLoopSub=1;" parent="22" vertex="1">
                    <mxGeometry x="689.93" y="770" width="110" height="70" as="geometry"/>
                </mxCell>
                <mxCell id="85" style="edgeStyle=orthogonalEdgeStyle;html=1;strokeColor=default;" parent="22" source="47" target="95" edge="1">
                    <mxGeometry relative="1" as="geometry">
                        <mxPoint x="1009.93" y="900" as="targetPoint"/>
                    </mxGeometry>
                </mxCell>
                <mxCell id="47" value="- Extract Regions Data" style="points=[[0.25,0,0],[0.5,0,0],[0.75,0,0],[1,0.25,0],[1,0.5,0],[1,0.75,0],[0.75,1,0],[0.5,1,0],[0.25,1,0],[0,0.75,0],[0,0.5,0],[0,0.25,0]];shape=mxgraph.bpmn.task;whiteSpace=wrap;rectStyle=rounded;size=10;html=1;taskMarker=abstract;isLoopSub=1;" parent="22" vertex="1">
                    <mxGeometry x="689.93" y="680" width="110" height="70" as="geometry"/>
                </mxCell>
                <mxCell id="84" style="edgeStyle=orthogonalEdgeStyle;html=1;strokeColor=default;" parent="22" source="41" target="95" edge="1">
                    <mxGeometry relative="1" as="geometry">
                        <mxPoint x="1009.93" y="900" as="targetPoint"/>
                    </mxGeometry>
                </mxCell>
                <mxCell id="41" value="- Extract Products Data" style="points=[[0.25,0,0],[0.5,0,0],[0.75,0,0],[1,0.25,0],[1,0.5,0],[1,0.75,0],[0.75,1,0],[0.5,1,0],[0.25,1,0],[0,0.75,0],[0,0.5,0],[0,0.25,0]];shape=mxgraph.bpmn.task;whiteSpace=wrap;rectStyle=rounded;size=10;html=1;taskMarker=abstract;isLoopSub=1;" parent="22" vertex="1">
                    <mxGeometry x="689.93" y="580" width="110" height="70" as="geometry"/>
                </mxCell>
                <mxCell id="83" style="edgeStyle=orthogonalEdgeStyle;html=1;strokeColor=default;" parent="22" source="40" target="95" edge="1">
                    <mxGeometry relative="1" as="geometry">
                        <mxPoint x="1009.93" y="900" as="targetPoint"/>
                    </mxGeometry>
                </mxCell>
                <mxCell id="40" value="- Extract Product Categories Data" style="points=[[0.25,0,0],[0.5,0,0],[0.75,0,0],[1,0.25,0],[1,0.5,0],[1,0.75,0],[0.75,1,0],[0.5,1,0],[0.25,1,0],[0,0.75,0],[0,0.5,0],[0,0.25,0]];shape=mxgraph.bpmn.task;whiteSpace=wrap;rectStyle=rounded;size=10;html=1;taskMarker=abstract;isLoopSub=1;" parent="22" vertex="1">
                    <mxGeometry x="689.93" y="490" width="110" height="70" as="geometry"/>
                </mxCell>
                <mxCell id="82" style="edgeStyle=orthogonalEdgeStyle;html=1;strokeColor=default;" parent="22" source="39" target="95" edge="1">
                    <mxGeometry relative="1" as="geometry">
                        <mxPoint x="1009.93" y="900" as="targetPoint"/>
                    </mxGeometry>
                </mxCell>
                <mxCell id="39" value="- Extract Payments Data" style="points=[[0.25,0,0],[0.5,0,0],[0.75,0,0],[1,0.25,0],[1,0.5,0],[1,0.75,0],[0.75,1,0],[0.5,1,0],[0.25,1,0],[0,0.75,0],[0,0.5,0],[0,0.25,0]];shape=mxgraph.bpmn.task;whiteSpace=wrap;rectStyle=rounded;size=10;html=1;taskMarker=abstract;isLoopSub=1;" parent="22" vertex="1">
                    <mxGeometry x="689.93" y="390" width="110" height="70" as="geometry"/>
                </mxCell>
                <mxCell id="81" style="edgeStyle=orthogonalEdgeStyle;html=1;strokeColor=default;" parent="22" source="35" target="95" edge="1">
                    <mxGeometry relative="1" as="geometry">
                        <mxPoint x="1009.93" y="900" as="targetPoint"/>
                    </mxGeometry>
                </mxCell>
                <mxCell id="35" value="- Extract Payment Methods Data" style="points=[[0.25,0,0],[0.5,0,0],[0.75,0,0],[1,0.25,0],[1,0.5,0],[1,0.75,0],[0.75,1,0],[0.5,1,0],[0.25,1,0],[0,0.75,0],[0,0.5,0],[0,0.25,0]];shape=mxgraph.bpmn.task;whiteSpace=wrap;rectStyle=rounded;size=10;html=1;taskMarker=abstract;isLoopSub=1;" parent="22" vertex="1">
                    <mxGeometry x="689.93" y="300" width="110" height="70" as="geometry"/>
                </mxCell>
                <mxCell id="80" style="edgeStyle=orthogonalEdgeStyle;html=1;strokeColor=default;" parent="22" source="38" target="95" edge="1">
                    <mxGeometry relative="1" as="geometry">
                        <mxPoint x="1009.93" y="900" as="targetPoint"/>
                    </mxGeometry>
                </mxCell>
                <mxCell id="187" style="edgeStyle=none;html=1;dashed=1;strokeColor=default;" parent="22" source="38" target="186" edge="1">
                    <mxGeometry relative="1" as="geometry"/>
                </mxCell>
                <mxCell id="38" value="- Extract Orders Data" style="points=[[0.25,0,0],[0.5,0,0],[0.75,0,0],[1,0.25,0],[1,0.5,0],[1,0.75,0],[0.75,1,0],[0.5,1,0],[0.25,1,0],[0,0.75,0],[0,0.5,0],[0,0.25,0]];shape=mxgraph.bpmn.task;whiteSpace=wrap;rectStyle=rounded;size=10;html=1;taskMarker=abstract;isLoopSub=1;" parent="22" vertex="1">
                    <mxGeometry x="689.93" y="210" width="110" height="70" as="geometry"/>
                </mxCell>
                <mxCell id="95" value="Insert Cutoff" style="rounded=1;whiteSpace=wrap;html=1;" parent="22" vertex="1">
                    <mxGeometry x="1020" y="870" width="120" height="60" as="geometry"/>
                </mxCell>
                <mxCell id="99" value="&amp;nbsp; &amp;nbsp; &amp;nbsp; &amp;nbsp; &amp;nbsp; &amp;nbsp; &amp;nbsp; Excel Source" style="rounded=1;whiteSpace=wrap;html=1;" parent="22" vertex="1">
                    <mxGeometry x="589.93" y="1670" width="130" height="60" as="geometry"/>
                </mxCell>
                <mxCell id="101" style="edgeStyle=orthogonalEdgeStyle;html=1;strokeColor=default;dashed=1;" parent="22" source="45" target="99" edge="1">
                    <mxGeometry relative="1" as="geometry">
                        <mxPoint x="529.93" y="1730" as="targetPoint"/>
                        <Array as="points">
                            <mxPoint x="732" y="1640"/>
                            <mxPoint x="650" y="1640"/>
                        </Array>
                    </mxGeometry>
                </mxCell>
                <mxCell id="100" value="Insert into destination dsa.deliveries_excel" style="rounded=1;whiteSpace=wrap;html=1;" parent="22" vertex="1">
                    <mxGeometry x="789.93" y="1670" width="120" height="60" as="geometry"/>
                </mxCell>
                <mxCell id="102" value="" style="sketch=0;pointerEvents=1;shadow=0;dashed=0;html=1;strokeColor=none;fillColor=#505050;labelPosition=center;verticalLabelPosition=bottom;verticalAlign=top;outlineConnect=0;align=center;shape=mxgraph.office.services.excel_services;aspect=fixed;" parent="22" vertex="1">
                    <mxGeometry x="599.93" y="1685.5" width="35.51" height="29" as="geometry"/>
                </mxCell>
                <mxCell id="105" style="edgeStyle=orthogonalEdgeStyle;html=1;dashed=1;strokeColor=default;" parent="22" source="100" target="45" edge="1">
                    <mxGeometry relative="1" as="geometry">
                        <Array as="points">
                            <mxPoint x="850" y="1640"/>
                            <mxPoint x="752" y="1640"/>
                        </Array>
                    </mxGeometry>
                </mxCell>
                <mxCell id="103" style="edgeStyle=orthogonalEdgeStyle;html=1;dashed=1;strokeColor=default;" parent="22" source="99" target="100" edge="1">
                    <mxGeometry relative="1" as="geometry"/>
                </mxCell>
                <mxCell id="185" style="html=1;entryX=0.25;entryY=0;entryDx=0;entryDy=0;entryPerimeter=0;dashed=1;strokeColor=default;" parent="22" source="184" target="38" edge="1">
                    <mxGeometry relative="1" as="geometry"/>
                </mxCell>
                <mxCell id="184" value="dbo.orders" style="shape=datastore;whiteSpace=wrap;html=1;labelPosition=center;verticalLabelPosition=top;align=center;verticalAlign=bottom;" parent="22" vertex="1">
                    <mxGeometry x="640.0000000000001" y="100" width="60" height="60" as="geometry"/>
                </mxCell>
                <mxCell id="186" value="dsa.orders" style="shape=datastore;whiteSpace=wrap;html=1;labelPosition=center;verticalLabelPosition=top;align=center;verticalAlign=bottom;" parent="22" vertex="1">
                    <mxGeometry x="757" y="100" width="60" height="60" as="geometry"/>
                </mxCell>
                <mxCell id="192" value="This example applies to the remaining extracts" style="text;html=1;strokeColor=none;fillColor=none;align=center;verticalAlign=middle;whiteSpace=wrap;rounded=0;" parent="22" vertex="1">
                    <mxGeometry x="459.93" y="115" width="160" height="30" as="geometry"/>
                </mxCell>
                <mxCell id="193" value="" style="shape=partialRectangle;whiteSpace=wrap;html=1;bottom=1;right=1;left=1;top=0;fillColor=none;routingCenterX=-0.5;rotation=90;" parent="22" vertex="1">
                    <mxGeometry x="439.93" y="115" width="50.07" height="25.03" as="geometry"/>
                </mxCell>
            </root>
        </mxGraphModel>
    </diagram>
</mxfile>